<svg xmlns="http://www.w3.org/2000/svg" width="554" height="51" viewBox="0 0 554 51" fill="none"><path d="M11.3267 16.1412V26.502H6.1708C4.79688 26.502 3.47923 25.9562 2.50772 24.9847C1.53621 24.0132 0.990417 22.6955 0.990417 21.3216C0.990417 19.9477 1.53621 18.63 2.50772 17.6585C3.47923 16.687 4.79688 16.1412 6.1708 16.1412H11.3267Z" fill="white"></path><path d="M32.235 47.2746V42.1187C32.2329 41.1188 32.5204 40.1396 33.0628 39.2996C33.6051 38.4596 34.3791 37.7946 35.2913 37.3849C36.2034 36.9753 37.2146 36.8386 38.2028 36.9913C39.191 37.1439 40.1138 37.5795 40.8598 38.2453C41.6058 38.9111 42.143 39.7787 42.4065 40.7433C42.6701 41.7078 42.6487 42.7281 42.3449 43.6807C42.0412 44.6333 41.468 45.4776 40.6948 46.1116C39.9215 46.7455 38.9813 47.142 37.9875 47.2531C37.9074 47.2648 37.8267 47.272 37.7458 47.2746H32.235Z" fill="white"></path><path d="M40.2483 10.9611C40.2487 11.6412 40.1151 12.3148 39.8551 12.9433C39.5951 13.5718 39.2138 14.1429 38.733 14.624C38.2522 15.105 37.6813 15.4867 37.053 15.7471C36.4246 16.0074 35.7512 16.1414 35.071 16.1414H11.3263V5.77761H35.071C35.7515 5.77559 36.4256 5.90813 37.0547 6.1676C37.6837 6.42707 38.2553 6.80835 38.7364 7.28951C39.2176 7.77067 39.5989 8.34222 39.8583 8.97127C40.1178 9.60033 40.2503 10.2745 40.2483 10.9549V10.9611Z" fill="white"></path><path d="M32.0467 31.6826C32.0471 32.363 31.9133 33.0368 31.6531 33.6655C31.393 34.2942 31.0114 34.8654 30.5303 35.3466C30.0491 35.8277 29.4779 36.2092 28.8492 36.4694C28.2205 36.7296 27.5467 36.8634 26.8663 36.863H21.6859V42.0403C21.6859 43.4142 21.1401 44.7319 20.1686 45.7034C19.1971 46.6749 17.8794 47.2207 16.5055 47.2207C15.1316 47.2207 13.8139 46.6749 12.8424 45.7034C11.8709 44.7319 11.3251 43.4142 11.3251 42.0403V26.5083H26.8724C27.6171 26.5082 28.353 26.6692 29.0296 26.9803C29.7062 27.2914 30.3074 27.7452 30.7921 28.3106C30.9553 28.503 31.1036 28.7076 31.2358 28.9226C31.7642 29.7462 32.0456 30.704 32.0467 31.6826Z" fill="white"></path><path d="M78.2801 15.8346H74.61V22.6981H78.2801V40H86.9549V22.6981H91.7212V15.8346H86.9549V15.3103C86.9549 13.9757 87.4792 13.3084 88.5754 13.3084C89.1474 13.3084 89.8147 13.4514 90.482 13.6897L92.8175 7.35046C90.9586 6.44485 88.6708 5.96822 86.0016 5.96822C83.6184 5.96822 81.7119 6.73084 80.3296 8.16074C78.9474 9.63831 78.2801 11.6878 78.2801 14.3093V15.8346ZM94.2951 40H102.97V15.6439H94.2951V40ZM93.6754 8.87569C93.6754 10.2103 94.1521 11.4019 95.1054 12.3551C96.0586 13.3084 97.2502 13.785 98.5848 13.785C99.9194 13.785 101.111 13.3084 102.112 12.3551C103.065 11.4019 103.589 10.2103 103.589 8.87569C103.589 7.54111 103.065 6.34953 102.112 5.39626C101.111 4.44298 99.9194 3.91868 98.5848 3.91868C97.2502 3.91868 96.0586 4.44298 95.1054 5.39626C94.1521 6.34953 93.6754 7.54111 93.6754 8.87569ZM132.123 15.6439H123.925V18.3607C123.353 17.2645 122.447 16.4542 121.256 15.9299C120.064 15.4533 118.873 15.1673 117.729 15.1673C114.392 15.1673 111.723 16.3112 109.769 18.5037C107.815 20.7439 106.861 23.5561 106.861 26.8925C106.861 30.229 107.815 33.0411 109.769 35.2336C111.723 37.4738 114.392 38.5701 117.729 38.5701C118.777 38.5701 119.874 38.3794 120.922 37.9981C121.971 37.6168 122.829 36.9972 123.448 36.1393C123.448 37.3308 122.972 38.3794 122.019 39.2374C121.065 40.143 119.683 40.572 117.824 40.572C115.012 40.572 112.819 40.0477 111.199 38.9991L108.101 44.4327C110.627 46.1486 114.202 47.0065 118.777 47.0065C121.208 47.0065 123.305 46.6729 125.117 45.9103C126.928 45.1477 128.31 44.1467 129.311 42.8122C130.264 41.4776 130.979 40.0477 131.456 38.4748C131.885 36.9495 132.123 35.2336 132.123 33.3748V15.6439ZM123.496 26.8925C123.496 28.1318 123.115 29.1804 122.4 29.943C121.637 30.7056 120.732 31.0869 119.588 31.0869C118.444 31.0869 117.49 30.7056 116.776 29.943C116.013 29.1804 115.679 28.1318 115.679 26.8925C115.679 25.6533 116.013 24.6523 116.776 23.8421C117.49 23.0794 118.444 22.6505 119.588 22.6505C120.732 22.6505 121.637 23.0794 122.4 23.8421C123.115 24.6523 123.496 25.6533 123.496 26.8925ZM158.373 18.9327C157.038 16.4542 154.655 15.1673 151.223 15.1673C148.125 15.1673 145.694 16.2159 143.883 18.3131V15.6439H135.685V40H144.36V28.5131C144.36 26.9402 144.646 25.6533 145.313 24.6523C145.933 23.6991 146.886 23.1748 148.125 23.1748C149.936 23.1748 150.842 24.6047 150.842 27.4168V40H159.517V28.5131C159.517 26.9402 159.803 25.6533 160.47 24.6523C161.09 23.6991 162.043 23.1748 163.282 23.1748C165.093 23.1748 165.999 24.6047 165.999 27.4168V40H174.674V26.4159C174.674 25.272 174.626 24.2234 174.531 23.3178C174.435 22.4598 174.245 21.4589 173.911 20.3626C173.577 19.314 173.101 18.4084 172.529 17.6935C171.957 17.0262 171.099 16.4065 170.003 15.9299C168.906 15.4533 167.619 15.1673 166.142 15.1673C164.664 15.1673 163.234 15.5009 161.805 16.0729C160.375 16.6449 159.231 17.5981 158.373 18.9327ZM194.815 18.3607C194.243 17.2168 193.338 16.4065 192.098 15.9299C190.812 15.4533 189.572 15.1673 188.333 15.1673C184.997 15.1673 182.423 16.3589 180.564 18.7421C178.657 21.1252 177.752 24.1757 177.752 27.8458C177.752 31.5159 178.657 34.5187 180.564 36.9019C182.423 39.285 184.997 40.4766 188.333 40.4766C189.572 40.4766 190.812 40.2383 192.098 39.7617C193.338 39.285 194.243 38.4271 194.815 37.2832V40H203.013V15.6439H194.815V18.3607ZM186.569 27.8458C186.569 26.4159 186.903 25.1766 187.666 24.2234C188.381 23.2701 189.334 22.7935 190.478 22.7935C191.622 22.7935 192.527 23.2701 193.29 24.2234C194.005 25.1766 194.386 26.4159 194.386 27.8458C194.386 29.3234 194.005 30.515 193.29 31.4682C192.527 32.4215 191.622 32.8505 190.478 32.8505C189.334 32.8505 188.381 32.4215 187.666 31.4682C186.903 30.515 186.569 29.3234 186.569 27.8458ZM242.159 8.63738H233.484V17.6935C232.15 16.0252 230.243 15.1673 227.765 15.1673C224.38 15.1673 221.711 16.4065 219.805 18.7897C217.851 21.1729 216.897 24.2234 216.897 27.8458C216.897 31.5159 217.803 34.5187 219.709 36.9019C221.568 39.285 224.142 40.4766 227.479 40.4766C228.718 40.4766 229.957 40.2383 231.244 39.7617C232.483 39.285 233.389 38.4271 233.961 37.2832V40H242.159V8.63738ZM225.715 27.8458C225.715 26.4159 226.049 25.1766 226.811 24.2234C227.526 23.2701 228.48 22.7935 229.623 22.7935C230.767 22.7935 231.673 23.2701 232.436 24.2234C233.151 25.1766 233.532 26.4159 233.532 27.8458C233.532 29.3234 233.151 30.515 232.436 31.4682C231.673 32.4215 230.767 32.8505 229.623 32.8505C228.48 32.8505 227.526 32.4215 226.811 31.4682C226.049 30.515 225.715 29.3234 225.715 27.8458ZM267.879 38.1888L264.971 32.3262C263.208 33.3271 261.301 33.8037 259.204 33.8037C256.392 33.8037 254.676 32.7551 254.009 30.6579H270.167L270.357 27.8458C270.357 24.3187 269.166 21.3635 266.83 18.885C264.447 16.4065 261.587 15.1673 258.155 15.1673C254.533 15.1673 251.53 16.4065 249.099 18.8374C246.668 21.3159 245.477 24.3187 245.477 27.8458C245.477 31.7542 246.764 34.8047 249.433 37.0925C252.054 39.3804 255.295 40.4766 259.156 40.4766C262.493 40.4766 265.4 39.714 267.879 38.1888ZM258.155 21.9832C259.252 21.9832 260.205 22.3645 261.015 23.0318C261.825 23.7467 262.302 24.6523 262.445 25.7486H253.77C254.009 24.6523 254.533 23.7467 255.343 23.0318C256.106 22.3645 257.059 21.9832 258.155 21.9832ZM272.551 37.5692C274.744 39.5234 278.128 40.4766 282.656 40.4766C283.8 40.4766 284.944 40.3813 286.135 40.0953C287.327 39.8093 288.518 39.3804 289.758 38.7607C290.949 38.1888 291.95 37.2832 292.713 36.1393C293.475 34.9953 293.857 33.6131 293.857 32.0878C293.857 30.5626 293.428 29.228 292.618 28.1318C291.76 27.0355 290.759 26.2252 289.567 25.7486C288.375 25.272 287.184 24.843 286.04 24.5093C284.848 24.2234 283.847 23.8897 283.037 23.6037C282.179 23.3178 281.798 22.9841 281.798 22.6028C281.798 22.1262 282.275 21.8402 283.323 21.8402C285.516 21.8402 287.851 22.3168 290.33 23.2701L292.904 17.4551C290.044 15.9299 286.755 15.1673 283.037 15.1673C280.273 15.1673 277.89 15.8822 275.935 17.3121C273.981 18.7421 273.028 20.7439 273.028 23.2701C273.028 25.3673 273.79 27.0355 275.411 28.2748C277.032 29.514 279.272 30.515 282.227 31.1822L283.037 31.3729C283.418 31.4682 283.704 31.5159 283.895 31.5636C284.038 31.6112 284.229 31.6589 284.467 31.7542C284.658 31.8495 284.848 31.9449 284.944 32.0402C285.039 32.1355 285.087 32.2785 285.087 32.4215C285.087 32.7075 284.848 32.9458 284.467 33.1364C284.038 33.3271 283.657 33.4224 283.371 33.4701C283.037 33.5178 282.799 33.5178 282.704 33.5178C280.94 33.5178 279.51 33.3748 278.461 33.0411C277.413 32.7075 276.364 32.1832 275.316 31.4682L272.551 37.5692ZM313.896 31.0869C312.704 32.2785 311.322 32.8505 309.797 32.8505C308.271 32.8505 307.127 32.4215 306.269 31.4682C305.411 30.5626 304.983 29.371 304.983 27.8458C304.983 26.4159 305.364 25.1766 306.222 24.2234C307.08 23.2701 308.176 22.7935 309.606 22.7935C310.845 22.7935 311.941 23.2701 312.99 24.2234L317.995 18.2178C315.421 16.2159 312.561 15.1673 309.368 15.1673C305.65 15.1673 302.504 16.4065 299.978 18.8374C297.452 21.3159 296.212 24.3187 296.212 27.8458C296.212 31.3729 297.452 34.3757 299.978 36.8065C302.504 39.285 305.65 40.4766 309.368 40.4766C312.895 40.4766 315.85 39.4757 318.233 37.4738L313.896 31.0869ZM319.393 27.8458C319.393 31.3729 320.632 34.3757 323.158 36.8065C325.684 39.285 328.83 40.4766 332.548 40.4766C336.265 40.4766 339.364 39.285 341.89 36.8065C344.416 34.3757 345.703 31.3729 345.703 27.8458C345.703 24.3187 344.416 21.3159 341.89 18.8374C339.364 16.4065 336.265 15.1673 332.548 15.1673C328.83 15.1673 325.684 16.4065 323.158 18.8374C320.632 21.3159 319.393 24.3187 319.393 27.8458ZM328.163 27.8458C328.163 26.4159 328.544 25.1766 329.402 24.2234C330.212 23.2701 331.261 22.7935 332.548 22.7935C333.787 22.7935 334.836 23.2701 335.693 24.2234C336.504 25.1766 336.933 26.4159 336.933 27.8458C336.933 29.3234 336.504 30.515 335.693 31.4682C334.883 32.4215 333.835 32.8505 332.548 32.8505C331.213 32.8505 330.165 32.4215 329.354 31.4682C328.544 30.515 328.163 29.3234 328.163 27.8458ZM371.742 18.9327C370.407 16.4542 368.024 15.1673 364.592 15.1673C361.494 15.1673 359.063 16.2159 357.252 18.3131V15.6439H349.054V40H357.729V28.5131C357.729 26.9402 358.015 25.6533 358.682 24.6523C359.301 23.6991 360.255 23.1748 361.494 23.1748C363.305 23.1748 364.211 24.6047 364.211 27.4168V40H372.886V28.5131C372.886 26.9402 373.172 25.6533 373.839 24.6523C374.458 23.6991 375.412 23.1748 376.651 23.1748C378.462 23.1748 379.368 24.6047 379.368 27.4168V40H388.043V26.4159C388.043 25.272 387.995 24.2234 387.9 23.3178C387.804 22.4598 387.614 21.4589 387.28 20.3626C386.946 19.314 386.47 18.4084 385.898 17.6935C385.326 17.0262 384.468 16.4065 383.372 15.9299C382.275 15.4533 380.988 15.1673 379.511 15.1673C378.033 15.1673 376.603 15.5009 375.173 16.0729C373.744 16.6449 372.6 17.5981 371.742 18.9327ZM391.597 47.0065H400.272V37.9505C401.559 39.6664 403.466 40.4766 405.992 40.4766C409.328 40.4766 411.997 39.285 413.951 36.9019C415.858 34.5187 416.859 31.4682 416.859 27.7981C416.859 24.1757 415.906 21.1252 414.047 18.7421C412.14 16.3589 409.566 15.1673 406.278 15.1673C405.038 15.1673 403.751 15.4533 402.512 15.9299C401.225 16.4065 400.32 17.2168 399.795 18.3607V15.6439H391.597V47.0065ZM400.177 27.8458C400.177 26.4159 400.51 25.1766 401.273 24.2234C401.988 23.2701 402.941 22.7935 404.085 22.7935C405.229 22.7935 406.135 23.2701 406.897 24.2234C407.612 25.1766 407.994 26.4159 407.994 27.8458C407.994 29.3234 407.612 30.515 406.897 31.4682C406.135 32.4215 405.229 32.8505 404.085 32.8505C402.941 32.8505 401.988 32.4215 401.273 31.4682C400.51 30.515 400.177 29.3234 400.177 27.8458ZM420.177 40H428.852V8.63738H420.177V40ZM432.651 40H441.326V15.6439H432.651V40ZM432.032 8.87569C432.032 10.2103 432.508 11.4019 433.462 12.3551C434.415 13.3084 435.606 13.785 436.941 13.785C438.276 13.785 439.467 13.3084 440.468 12.3551C441.421 11.4019 441.946 10.2103 441.946 8.87569C441.946 7.54111 441.421 6.34953 440.468 5.39626C439.467 4.44298 438.276 3.91868 436.941 3.91868C435.606 3.91868 434.415 4.44298 433.462 5.39626C432.508 6.34953 432.032 7.54111 432.032 8.87569ZM462.332 31.0869C461.141 32.2785 459.758 32.8505 458.233 32.8505C456.708 32.8505 455.564 32.4215 454.706 31.4682C453.848 30.5626 453.419 29.371 453.419 27.8458C453.419 26.4159 453.8 25.1766 454.658 24.2234C455.516 23.2701 456.613 22.7935 458.043 22.7935C459.282 22.7935 460.378 23.2701 461.427 24.2234L466.431 18.2178C463.857 16.2159 460.998 15.1673 457.804 15.1673C454.086 15.1673 450.941 16.4065 448.414 18.8374C445.888 21.3159 444.649 24.3187 444.649 27.8458C444.649 31.3729 445.888 34.3757 448.414 36.8065C450.941 39.285 454.086 40.4766 457.804 40.4766C461.331 40.4766 464.286 39.4757 466.67 37.4738L462.332 31.0869ZM484.893 18.3607C484.321 17.2168 483.415 16.4065 482.176 15.9299C480.889 15.4533 479.65 15.1673 478.41 15.1673C475.074 15.1673 472.5 16.3589 470.641 18.7421C468.735 21.1252 467.829 24.1757 467.829 27.8458C467.829 31.5159 468.735 34.5187 470.641 36.9019C472.5 39.285 475.074 40.4766 478.41 40.4766C479.65 40.4766 480.889 40.2383 482.176 39.7617C483.415 39.285 484.321 38.4271 484.893 37.2832V40H493.091V15.6439H484.893V18.3607ZM476.647 27.8458C476.647 26.4159 476.981 25.1766 477.743 24.2234C478.458 23.2701 479.411 22.7935 480.555 22.7935C481.699 22.7935 482.605 23.2701 483.367 24.2234C484.082 25.1766 484.464 26.4159 484.464 27.8458C484.464 29.3234 484.082 30.515 483.367 31.4682C482.605 32.4215 481.699 32.8505 480.555 32.8505C479.411 32.8505 478.458 32.4215 477.743 31.4682C476.981 30.515 476.647 29.3234 476.647 27.8458ZM521.67 8.63738H512.996V17.6935C511.661 16.0252 509.754 15.1673 507.276 15.1673C503.892 15.1673 501.223 16.4065 499.316 18.7897C497.362 21.1729 496.409 24.2234 496.409 27.8458C496.409 31.5159 497.314 34.5187 499.221 36.9019C501.08 39.285 503.654 40.4766 506.99 40.4766C508.229 40.4766 509.469 40.2383 510.755 39.7617C511.995 39.285 512.9 38.4271 513.472 37.2832V40H521.67V8.63738ZM505.226 27.8458C505.226 26.4159 505.56 25.1766 506.323 24.2234C507.038 23.2701 507.991 22.7935 509.135 22.7935C510.279 22.7935 511.184 23.2701 511.947 24.2234C512.662 25.1766 513.043 26.4159 513.043 27.8458C513.043 29.3234 512.662 30.515 511.947 31.4682C511.184 32.4215 510.279 32.8505 509.135 32.8505C507.991 32.8505 507.038 32.4215 506.323 31.4682C505.56 30.515 505.226 29.3234 505.226 27.8458ZM524.988 27.8458C524.988 31.3729 526.227 34.3757 528.754 36.8065C531.28 39.285 534.426 40.4766 538.143 40.4766C541.861 40.4766 544.959 39.285 547.485 36.8065C550.012 34.3757 551.298 31.3729 551.298 27.8458C551.298 24.3187 550.012 21.3159 547.485 18.8374C544.959 16.4065 541.861 15.1673 538.143 15.1673C534.426 15.1673 531.28 16.4065 528.754 18.8374C526.227 21.3159 524.988 24.3187 524.988 27.8458ZM533.758 27.8458C533.758 26.4159 534.14 25.1766 534.998 24.2234C535.808 23.2701 536.856 22.7935 538.143 22.7935C539.383 22.7935 540.431 23.2701 541.289 24.2234C542.099 25.1766 542.528 26.4159 542.528 27.8458C542.528 29.3234 542.099 30.515 541.289 31.4682C540.479 32.4215 539.43 32.8505 538.143 32.8505C536.809 32.8505 535.76 32.4215 534.95 31.4682C534.14 30.515 533.758 29.3234 533.758 27.8458Z" fill="white"></path></svg>