<svg xmlns="http://www.w3.org/2000/svg" width="276" height="34" viewBox="0 0 276 34" fill="none"><path d="M8.31389 8.33594V16.6695H4.16679C3.06169 16.6695 2.00185 16.2305 1.22042 15.4491C0.438999 14.6677 0 13.6078 0 12.5027C0 11.3976 0.438999 10.3378 1.22042 9.55636C2.00185 8.77494 3.06169 8.33594 4.16679 8.33594H8.31389Z" fill="#F04688"></path><path d="M25.1311 33.3787V29.2316C25.1294 28.4273 25.3607 27.6398 25.7969 26.9641C26.2332 26.2885 26.8557 25.7536 27.5894 25.4241C28.3231 25.0946 29.1365 24.9846 29.9313 25.1074C30.7261 25.2302 31.4684 25.5806 32.0684 26.1161C32.6684 26.6517 33.1005 27.3495 33.3125 28.1253C33.5245 28.9012 33.5073 29.7218 33.2629 30.488C33.0186 31.2543 32.5576 31.9334 31.9357 32.4433C31.3137 32.9532 30.5574 33.2721 29.7581 33.3615C29.6937 33.3709 29.6288 33.3766 29.5637 33.3787H25.1311Z" fill="#F04688"></path><path d="M31.5771 4.16927C31.5774 4.71634 31.4699 5.25812 31.2608 5.76365C31.0517 6.26917 30.745 6.72853 30.3583 7.11548C29.9715 7.50244 29.5124 7.80941 29.007 8.01884C28.5016 8.22827 27.9598 8.33605 27.4128 8.33605H8.31396V1.82914e-05H27.4128C27.9601 -0.0016063 28.5023 0.105004 29.0083 0.313705C29.5143 0.522407 29.974 0.829083 30.361 1.2161C30.748 1.60312 31.0547 2.06283 31.2634 2.56881C31.4721 3.07478 31.5787 3.61702 31.5771 4.16434V4.16927Z" fill="#F04688"></path><path d="M24.9787 20.8364C24.979 21.3837 24.8714 21.9257 24.6622 22.4314C24.4529 22.9371 24.146 23.3965 23.759 23.7835C23.372 24.1705 22.9125 24.4774 22.4068 24.6867C21.9011 24.896 21.3592 25.0035 20.8119 25.0032H16.6451V29.1675C16.6451 30.2726 16.2061 31.3325 15.4247 32.1139C14.6432 32.8953 13.5834 33.3343 12.4783 33.3343C11.3732 33.3343 10.3134 32.8953 9.53195 32.1139C8.75052 31.3325 8.31152 30.2726 8.31152 29.1675V16.6746H20.8168C21.4158 16.6745 22.0077 16.804 22.5519 17.0542C23.0961 17.3044 23.5797 17.6695 23.9696 18.1242C24.1009 18.279 24.2202 18.4435 24.3265 18.6164C24.7515 19.2789 24.9778 20.0493 24.9787 20.8364Z" fill="#F04688"></path><path d="M56.9823 12.3301H55.2956V15.4844H56.9823V23.4358H60.969V15.4844H63.1595V12.3301H60.969V12.0891C60.969 11.4758 61.2099 11.1691 61.7137 11.1691C61.9766 11.1691 62.2833 11.2348 62.5899 11.3444L63.6633 8.43103C62.809 8.01484 61.7575 7.79579 60.5309 7.79579C59.4356 7.79579 58.5595 8.14627 57.9242 8.80341C57.289 9.48246 56.9823 10.4244 56.9823 11.6291V12.3301ZM64.3423 23.4358H68.329V12.2425H64.3423V23.4358ZM64.0575 9.13198C64.0575 9.74531 64.2766 10.2929 64.7147 10.731C65.1528 11.1691 65.7004 11.3882 66.3137 11.3882C66.9271 11.3882 67.4747 11.1691 67.9347 10.731C68.3728 10.2929 68.6137 9.74531 68.6137 9.13198C68.6137 8.51865 68.3728 7.97103 67.9347 7.53293C67.4747 7.09484 66.9271 6.85388 66.3137 6.85388C65.7004 6.85388 65.1528 7.09484 64.7147 7.53293C64.2766 7.97103 64.0575 8.51865 64.0575 9.13198ZM81.727 12.2425H77.9594V13.491C77.6965 12.9872 77.2803 12.6148 76.7327 12.3739C76.1851 12.1548 75.6375 12.0234 75.1118 12.0234C73.5784 12.0234 72.3518 12.5491 71.4537 13.5567C70.5556 14.5863 70.1175 15.8786 70.1175 17.412C70.1175 18.9453 70.5556 20.2377 71.4537 21.2453C72.3518 22.2748 73.5784 22.7786 75.1118 22.7786C75.5937 22.7786 76.0975 22.691 76.5794 22.5158C77.0613 22.3406 77.4556 22.0558 77.7403 21.6615C77.7403 22.2091 77.5213 22.691 77.0832 23.0853C76.6451 23.5015 76.0098 23.6986 75.1556 23.6986C73.8632 23.6986 72.8556 23.4577 72.1108 22.9758L70.687 25.4729C71.8479 26.2615 73.4908 26.6558 75.5937 26.6558C76.7108 26.6558 77.6746 26.5025 78.507 26.152C79.3394 25.8015 79.9746 25.3415 80.4346 24.7282C80.8727 24.1148 81.2013 23.4577 81.4203 22.7348C81.6175 22.0339 81.727 21.2453 81.727 20.391V12.2425ZM77.7622 17.412C77.7622 17.9815 77.587 18.4634 77.2584 18.8139C76.9079 19.1644 76.4918 19.3396 75.966 19.3396C75.4403 19.3396 75.0022 19.1644 74.6737 18.8139C74.3232 18.4634 74.1698 17.9815 74.1698 17.412C74.1698 16.8425 74.3232 16.3825 74.6737 16.0101C75.0022 15.6596 75.4403 15.4625 75.966 15.4625C76.4918 15.4625 76.9079 15.6596 77.2584 16.0101C77.587 16.3825 77.7622 16.8425 77.7622 17.412ZM93.7905 13.7539C93.1772 12.6148 92.082 12.0234 90.5048 12.0234C89.081 12.0234 87.9639 12.5053 87.1315 13.4691V12.2425H83.3639V23.4358H87.3505V18.1567C87.3505 17.4339 87.482 16.8425 87.7886 16.3825C88.0734 15.9444 88.5115 15.7034 89.081 15.7034C89.9134 15.7034 90.3296 16.3606 90.3296 17.6529V23.4358H94.3162V18.1567C94.3162 17.4339 94.4477 16.8425 94.7543 16.3825C95.0391 15.9444 95.4772 15.7034 96.0467 15.7034C96.8791 15.7034 97.2953 16.3606 97.2953 17.6529V23.4358H101.282V17.1929C101.282 16.6672 101.26 16.1853 101.216 15.7691C101.172 15.3748 101.085 14.9148 100.931 14.411C100.778 13.9291 100.559 13.5129 100.296 13.1844C100.033 12.8777 99.6391 12.5929 99.1353 12.3739C98.6315 12.1548 98.0401 12.0234 97.361 12.0234C96.682 12.0234 96.0248 12.1767 95.3677 12.4396C94.7105 12.7025 94.1848 13.1406 93.7905 13.7539ZM110.538 13.491C110.276 12.9653 109.859 12.5929 109.29 12.3739C108.698 12.1548 108.129 12.0234 107.559 12.0234C106.026 12.0234 104.843 12.571 103.989 13.6663C103.113 14.7615 102.697 16.1634 102.697 17.8501C102.697 19.5367 103.113 20.9167 103.989 22.012C104.843 23.1072 106.026 23.6548 107.559 23.6548C108.129 23.6548 108.698 23.5453 109.29 23.3263C109.859 23.1072 110.276 22.7129 110.538 22.1872V23.4358H114.306V12.2425H110.538V13.491ZM106.749 17.8501C106.749 17.1929 106.902 16.6234 107.253 16.1853C107.581 15.7472 108.019 15.5282 108.545 15.5282C109.071 15.5282 109.487 15.7472 109.837 16.1853C110.166 16.6234 110.341 17.1929 110.341 17.8501C110.341 18.5291 110.166 19.0767 109.837 19.5148C109.487 19.9529 109.071 20.1501 108.545 20.1501C108.019 20.1501 107.581 19.9529 107.253 19.5148C106.902 19.0767 106.749 18.5291 106.749 17.8501ZM132.296 9.02246H128.31V13.1844C127.696 12.4177 126.82 12.0234 125.681 12.0234C124.126 12.0234 122.899 12.5929 122.023 13.6882C121.125 14.7834 120.687 16.1853 120.687 17.8501C120.687 19.5367 121.103 20.9167 121.979 22.012C122.833 23.1072 124.016 23.6548 125.55 23.6548C126.119 23.6548 126.689 23.5453 127.28 23.3263C127.85 23.1072 128.266 22.7129 128.529 22.1872V23.4358H132.296V9.02246ZM124.739 17.8501C124.739 17.1929 124.892 16.6234 125.243 16.1853C125.571 15.7472 126.01 15.5282 126.535 15.5282C127.061 15.5282 127.477 15.7472 127.828 16.1853C128.156 16.6234 128.331 17.1929 128.331 17.8501C128.331 18.5291 128.156 19.0767 127.828 19.5148C127.477 19.9529 127.061 20.1501 126.535 20.1501C126.01 20.1501 125.571 19.9529 125.243 19.5148C124.892 19.0767 124.739 18.5291 124.739 17.8501ZM144.116 22.6034L142.78 19.9091C141.97 20.3691 141.093 20.5882 140.13 20.5882C138.837 20.5882 138.049 20.1063 137.742 19.1425H145.168L145.255 17.8501C145.255 16.2291 144.708 14.871 143.634 13.732C142.539 12.5929 141.225 12.0234 139.648 12.0234C137.983 12.0234 136.603 12.5929 135.486 13.7101C134.369 14.8491 133.821 16.2291 133.821 17.8501C133.821 19.6463 134.412 21.0482 135.639 22.0996C136.844 23.151 138.333 23.6548 140.108 23.6548C141.641 23.6548 142.977 23.3044 144.116 22.6034ZM139.648 15.1558C140.151 15.1558 140.59 15.331 140.962 15.6377C141.334 15.9663 141.553 16.3825 141.619 16.8863H137.632C137.742 16.3825 137.983 15.9663 138.355 15.6377C138.706 15.331 139.144 15.1558 139.648 15.1558ZM146.264 22.3186C147.271 23.2167 148.826 23.6548 150.907 23.6548C151.433 23.6548 151.959 23.611 152.506 23.4796C153.054 23.3482 153.602 23.151 154.171 22.8663C154.719 22.6034 155.179 22.1872 155.529 21.6615C155.88 21.1358 156.055 20.5006 156.055 19.7996C156.055 19.0986 155.858 18.4853 155.485 17.9815C155.091 17.4777 154.631 17.1053 154.084 16.8863C153.536 16.6672 152.988 16.4701 152.463 16.3167C151.915 16.1853 151.455 16.032 151.083 15.9006C150.688 15.7691 150.513 15.6158 150.513 15.4406C150.513 15.2215 150.732 15.0901 151.214 15.0901C152.222 15.0901 153.295 15.3091 154.434 15.7472L155.617 13.0748C154.303 12.3739 152.791 12.0234 151.083 12.0234C149.812 12.0234 148.717 12.352 147.819 13.0091C146.921 13.6663 146.483 14.5863 146.483 15.7472C146.483 16.711 146.833 17.4777 147.578 18.0472C148.323 18.6167 149.352 19.0767 150.71 19.3834L151.083 19.471C151.258 19.5148 151.389 19.5367 151.477 19.5586C151.543 19.5806 151.63 19.6025 151.74 19.6463C151.827 19.6901 151.915 19.7339 151.959 19.7777C152.003 19.8215 152.025 19.8872 152.025 19.9529C152.025 20.0844 151.915 20.1939 151.74 20.2815C151.543 20.3691 151.367 20.4129 151.236 20.4348C151.083 20.4567 150.973 20.4567 150.929 20.4567C150.119 20.4567 149.462 20.391 148.98 20.2377C148.498 20.0844 148.016 19.8434 147.534 19.5148L146.264 22.3186ZM165.264 19.3396C164.717 19.8872 164.081 20.1501 163.38 20.1501C162.679 20.1501 162.154 19.9529 161.759 19.5148C161.365 19.0986 161.168 18.551 161.168 17.8501C161.168 17.1929 161.343 16.6234 161.738 16.1853C162.132 15.7472 162.636 15.5282 163.293 15.5282C163.862 15.5282 164.366 15.7472 164.848 16.1853L167.148 13.4253C165.965 12.5053 164.651 12.0234 163.183 12.0234C161.475 12.0234 160.029 12.5929 158.868 13.7101C157.707 14.8491 157.138 16.2291 157.138 17.8501C157.138 19.471 157.707 20.851 158.868 21.9682C160.029 23.1072 161.475 23.6548 163.183 23.6548C164.804 23.6548 166.162 23.1948 167.258 22.2748L165.264 19.3396ZM167.79 17.8501C167.79 19.471 168.36 20.851 169.521 21.9682C170.682 23.1072 172.128 23.6548 173.836 23.6548C175.545 23.6548 176.969 23.1072 178.13 21.9682C179.29 20.851 179.882 19.471 179.882 17.8501C179.882 16.2291 179.29 14.8491 178.13 13.7101C176.969 12.5929 175.545 12.0234 173.836 12.0234C172.128 12.0234 170.682 12.5929 169.521 13.7101C168.36 14.8491 167.79 16.2291 167.79 17.8501ZM171.821 17.8501C171.821 17.1929 171.996 16.6234 172.39 16.1853C172.763 15.7472 173.245 15.5282 173.836 15.5282C174.406 15.5282 174.888 15.7472 175.282 16.1853C175.654 16.6234 175.851 17.1929 175.851 17.8501C175.851 18.5291 175.654 19.0767 175.282 19.5148C174.91 19.9529 174.428 20.1501 173.836 20.1501C173.223 20.1501 172.741 19.9529 172.369 19.5148C171.996 19.0767 171.821 18.5291 171.821 17.8501ZM191.849 13.7539C191.235 12.6148 190.14 12.0234 188.563 12.0234C187.139 12.0234 186.022 12.5053 185.19 13.4691V12.2425H181.422V23.4358H185.409V18.1567C185.409 17.4339 185.54 16.8425 185.847 16.3825C186.131 15.9444 186.57 15.7034 187.139 15.7034C187.971 15.7034 188.388 16.3606 188.388 17.6529V23.4358H192.374V18.1567C192.374 17.4339 192.506 16.8425 192.812 16.3825C193.097 15.9444 193.535 15.7034 194.105 15.7034C194.937 15.7034 195.353 16.3606 195.353 17.6529V23.4358H199.34V17.1929C199.34 16.6672 199.318 16.1853 199.274 15.7691C199.23 15.3748 199.143 14.9148 198.99 14.411C198.836 13.9291 198.617 13.5129 198.354 13.1844C198.091 12.8777 197.697 12.5929 197.193 12.3739C196.69 12.1548 196.098 12.0234 195.419 12.0234C194.74 12.0234 194.083 12.1767 193.426 12.4396C192.769 12.7025 192.243 13.1406 191.849 13.7539ZM200.974 26.6558H204.96V22.4939C205.552 23.2825 206.428 23.6548 207.589 23.6548C209.122 23.6548 210.349 23.1072 211.247 22.012C212.123 20.9167 212.583 19.5148 212.583 17.8282C212.583 16.1634 212.145 14.7615 211.291 13.6663C210.415 12.571 209.232 12.0234 207.72 12.0234C207.151 12.0234 206.559 12.1548 205.99 12.3739C205.398 12.5929 204.982 12.9653 204.741 13.491V12.2425H200.974V26.6558ZM204.916 17.8501C204.916 17.1929 205.07 16.6234 205.42 16.1853C205.749 15.7472 206.187 15.5282 206.713 15.5282C207.238 15.5282 207.655 15.7472 208.005 16.1853C208.334 16.6234 208.509 17.1929 208.509 17.8501C208.509 18.5291 208.334 19.0767 208.005 19.5148C207.655 19.9529 207.238 20.1501 206.713 20.1501C206.187 20.1501 205.749 19.9529 205.42 19.5148C205.07 19.0767 204.916 18.5291 204.916 17.8501ZM214.108 23.4358H218.095V9.02246H214.108V23.4358ZM219.841 23.4358H223.827V12.2425H219.841V23.4358ZM219.556 9.13198C219.556 9.74531 219.775 10.2929 220.213 10.731C220.651 11.1691 221.199 11.3882 221.812 11.3882C222.426 11.3882 222.973 11.1691 223.433 10.731C223.871 10.2929 224.112 9.74531 224.112 9.13198C224.112 8.51865 223.871 7.97103 223.433 7.53293C222.973 7.09484 222.426 6.85388 221.812 6.85388C221.199 6.85388 220.651 7.09484 220.213 7.53293C219.775 7.97103 219.556 8.51865 219.556 9.13198ZM233.481 19.3396C232.934 19.8872 232.298 20.1501 231.598 20.1501C230.897 20.1501 230.371 19.9529 229.977 19.5148C229.582 19.0986 229.385 18.551 229.385 17.8501C229.385 17.1929 229.56 16.6234 229.955 16.1853C230.349 15.7472 230.853 15.5282 231.51 15.5282C232.079 15.5282 232.583 15.7472 233.065 16.1853L235.365 13.4253C234.182 12.5053 232.868 12.0234 231.4 12.0234C229.692 12.0234 228.246 12.5929 227.085 13.7101C225.924 14.8491 225.355 16.2291 225.355 17.8501C225.355 19.471 225.924 20.851 227.085 21.9682C228.246 23.1072 229.692 23.6548 231.4 23.6548C233.021 23.6548 234.379 23.1948 235.475 22.2748L233.481 19.3396ZM243.849 13.491C243.587 12.9653 243.17 12.5929 242.601 12.3739C242.009 12.1548 241.44 12.0234 240.87 12.0234C239.337 12.0234 238.154 12.571 237.3 13.6663C236.424 14.7615 236.008 16.1634 236.008 17.8501C236.008 19.5367 236.424 20.9167 237.3 22.012C238.154 23.1072 239.337 23.6548 240.87 23.6548C241.44 23.6548 242.009 23.5453 242.601 23.3263C243.17 23.1072 243.587 22.7129 243.849 22.1872V23.4358H247.617V12.2425H243.849V13.491ZM240.06 17.8501C240.06 17.1929 240.213 16.6234 240.564 16.1853C240.892 15.7472 241.33 15.5282 241.856 15.5282C242.382 15.5282 242.798 15.7472 243.148 16.1853C243.477 16.6234 243.652 17.1929 243.652 17.8501C243.652 18.5291 243.477 19.0767 243.148 19.5148C242.798 19.9529 242.382 20.1501 241.856 20.1501C241.33 20.1501 240.892 19.9529 240.564 19.5148C240.213 19.0767 240.06 18.5291 240.06 17.8501ZM260.751 9.02246H256.765V13.1844C256.151 12.4177 255.275 12.0234 254.136 12.0234C252.581 12.0234 251.354 12.5929 250.478 13.6882C249.58 14.7834 249.142 16.1853 249.142 17.8501C249.142 19.5367 249.558 20.9167 250.434 22.012C251.289 23.1072 252.471 23.6548 254.005 23.6548C254.574 23.6548 255.144 23.5453 255.735 23.3263C256.305 23.1072 256.721 22.7129 256.984 22.1872V23.4358H260.751V9.02246ZM253.194 17.8501C253.194 17.1929 253.348 16.6234 253.698 16.1853C254.027 15.7472 254.465 15.5282 254.99 15.5282C255.516 15.5282 255.932 15.7472 256.283 16.1853C256.611 16.6234 256.787 17.1929 256.787 17.8501C256.787 18.5291 256.611 19.0767 256.283 19.5148C255.932 19.9529 255.516 20.1501 254.99 20.1501C254.465 20.1501 254.027 19.9529 253.698 19.5148C253.348 19.0767 253.194 18.5291 253.194 17.8501ZM262.276 17.8501C262.276 19.471 262.846 20.851 264.007 21.9682C265.168 23.1072 266.613 23.6548 268.322 23.6548C270.03 23.6548 271.454 23.1072 272.615 21.9682C273.776 20.851 274.368 19.471 274.368 17.8501C274.368 16.2291 273.776 14.8491 272.615 13.7101C271.454 12.5929 270.03 12.0234 268.322 12.0234C266.613 12.0234 265.168 12.5929 264.007 13.7101C262.846 14.8491 262.276 16.2291 262.276 17.8501ZM266.307 17.8501C266.307 17.1929 266.482 16.6234 266.876 16.1853C267.249 15.7472 267.73 15.5282 268.322 15.5282C268.891 15.5282 269.373 15.7472 269.768 16.1853C270.14 16.6234 270.337 17.1929 270.337 17.8501C270.337 18.5291 270.14 19.0767 269.768 19.5148C269.395 19.9529 268.913 20.1501 268.322 20.1501C267.709 20.1501 267.227 19.9529 266.854 19.5148C266.482 19.0767 266.307 18.5291 266.307 17.8501Z" fill="#3F3F3F"></path></svg>